<?xml version="1.0" standalone="no"?>
<!DOCTYPE svg PUBLIC "-//W3C//DTD SVG 20010904//EN"
 "http://www.w3.org/TR/2001/REC-SVG-20010904/DTD/svg10.dtd">
<svg version="1.0" xmlns="http://www.w3.org/2000/svg"
 width="500.000000pt" height="500.000000pt" viewBox="0 0 500.000000 500.000000"
 preserveAspectRatio="xMidYMid meet">

<g transform="translate(0.000000,500.000000) scale(0.100000,-0.100000)"
fill="#000000" stroke="none">
<path d="M2325 4558 c-373 -30 -749 -172 -1058 -400 -681 -504 -984 -1388
-757 -2210 300 -1087 1423 -1729 2523 -1443 497 129 958 475 1231 922 153 252
248 526 286 823 16 127 13 412 -5 537 -87 593 -409 1102 -910 1438 -279 187
-635 308 -985 335 -150 11 -168 11 -325 -2z m468 -138 c767 -113 1403 -691
1591 -1448 45 -180 51 -237 51 -472 0 -235 -6 -292 -51 -472 -191 -766 -837
-1345 -1622 -1452 -130 -18 -369 -21 -492 -6 -338 42 -668 175 -940 379 -98
73 -266 236 -343 331 -192 238 -328 526 -393 835 -35 164 -45 483 -20 654 63
428 251 803 552 1105 319 317 704 502 1169 559 102 13 370 5 498 -13z"/>
<path d="M3138 3963 c6 -2 18 -2 25 0 6 3 1 5 -13 5 -14 0 -19 -2 -12 -5z"/>
<path d="M3090 3950 c-8 -5 -10 -10 -5 -10 6 0 17 5 25 10 8 5 11 10 5 10 -5
0 -17 -5 -25 -10z"/>
<path d="M3180 3956 c0 -2 7 -7 16 -10 8 -3 12 -2 9 4 -6 10 -25 14 -25 6z"/>
<path d="M3030 3925 c-14 -8 -20 -14 -15 -14 6 0 21 6 35 14 14 8 21 14 15 14
-5 0 -21 -6 -35 -14z"/>
<path d="M3240 3901 c0 -5 5 -13 10 -16 6 -3 10 -2 10 4 0 5 -4 13 -10 16 -5
3 -10 2 -10 -4z"/>
<path d="M2940 3885 c-14 -8 -20 -14 -15 -14 6 0 21 6 35 14 14 8 21 14 15 14
-5 0 -21 -6 -35 -14z"/>
<path d="M2870 3855 c-14 -8 -20 -14 -15 -14 6 0 21 6 35 14 14 8 21 14 15 14
-5 0 -21 -6 -35 -14z"/>
<path d="M3261 3865 c0 -5 6 -21 14 -35 8 -14 14 -20 14 -15 0 6 -6 21 -14 35
-8 14 -14 21 -14 15z"/>
<path d="M2780 3815 c-14 -8 -20 -14 -15 -14 6 0 21 6 35 14 14 8 21 14 15 14
-5 0 -21 -6 -35 -14z"/>
<path d="M1395 3781 c-125 -31 -195 -127 -195 -268 0 -72 16 -117 61 -174 46
-58 114 -100 409 -252 146 -74 288 -148 315 -162 l50 -27 87 53 c73 46 84 55
70 65 -10 6 -75 44 -147 83 -131 73 -167 99 -188 136 -7 12 -12 72 -12 150 0
122 -2 134 -28 187 -52 107 -167 186 -297 207 -72 12 -82 12 -125 2z m160
-137 c47 -19 122 -89 144 -134 38 -75 33 -168 -11 -204 -35 -28 -108 -16 -205
32 -130 66 -173 113 -173 188 0 40 29 93 64 114 50 32 113 33 181 4z"/>
<path d="M2690 3775 c-14 -8 -20 -14 -15 -14 6 0 21 6 35 14 14 8 21 14 15 14
-5 0 -21 -6 -35 -14z"/>
<path d="M3301 3775 c0 -5 6 -21 14 -35 8 -14 14 -20 14 -15 0 6 -6 21 -14 35
-8 14 -14 21 -14 15z"/>
<path d="M2620 3745 c-14 -8 -20 -14 -15 -14 6 0 21 6 35 14 14 8 21 14 15 14
-5 0 -21 -6 -35 -14z"/>
<path d="M2530 3705 c-14 -8 -20 -14 -15 -14 6 0 21 6 35 14 14 8 21 14 15 14
-5 0 -21 -6 -35 -14z"/>
<path d="M2460 3675 c-14 -8 -20 -14 -15 -14 6 0 21 6 35 14 14 8 21 14 15 14
-5 0 -21 -6 -35 -14z"/>
<path d="M3341 3685 c0 -5 6 -21 14 -35 8 -14 14 -20 14 -15 0 6 -6 21 -14 35
-8 14 -14 21 -14 15z"/>
<path d="M2380 3640 c-8 -5 -10 -10 -5 -10 6 0 17 5 25 10 8 5 11 10 5 10 -5
0 -17 -5 -25 -10z"/>
<path d="M3485 3629 c-27 -6 -65 -11 -82 -12 -18 -1 -33 -5 -33 -9 0 -4 -21
-14 -48 -21 -26 -8 -224 -123 -440 -255 l-392 -240 -16 26 c-14 25 -14 18 0
-18 4 -11 -27 -35 -117 -89 -67 -41 -211 -130 -321 -198 -109 -68 -303 -183
-430 -255 -273 -156 -335 -195 -399 -257 -62 -59 -91 -113 -83 -155 8 -43 79
-148 129 -191 143 -122 427 -65 633 128 130 121 156 180 158 354 1 147 9 162
111 211 59 28 270 146 382 214 l32 19 16 -28 c15 -26 15 -19 1 18 -5 12 128
93 614 374 l620 360 -37 13 c-48 17 -233 24 -298 11z m-1612 -1132 c45 -19 61
-43 60 -87 -6 -152 -229 -350 -427 -381 -186 -29 -281 45 -217 169 25 50 53
69 286 199 209 116 236 125 298 100z"/>
<path d="M2326 3599 c-14 -17 -26 -40 -25 -52 1 -18 2 -17 9 7 5 16 19 39 31
52 12 13 20 24 17 24 -4 0 -18 -14 -32 -31z"/>
<path d="M2301 3504 c0 -11 3 -14 6 -6 3 7 2 16 -1 19 -3 4 -6 -2 -5 -13z"/>
<path d="M2321 3455 c0 -5 6 -21 14 -35 8 -14 14 -20 14 -15 0 6 -6 21 -14 35
-8 14 -14 21 -14 15z"/>
<path d="M2351 3385 c0 -5 6 -21 14 -35 8 -14 14 -20 14 -15 0 6 -6 21 -14 35
-8 14 -14 21 -14 15z"/>
<path d="M3481 3365 c0 -5 6 -21 14 -35 8 -14 14 -20 14 -15 0 6 -6 21 -14 35
-8 14 -14 21 -14 15z"/>
<path d="M2391 3295 c0 -5 6 -21 14 -35 8 -14 14 -20 14 -15 0 6 -6 21 -14 35
-8 14 -14 21 -14 15z"/>
<path d="M3511 3295 c0 -5 6 -21 14 -35 8 -14 14 -20 14 -15 0 6 -6 21 -14 35
-8 14 -14 21 -14 15z"/>
<path d="M2421 3225 c0 -5 6 -21 14 -35 8 -14 14 -20 14 -15 0 6 -6 21 -14 35
-8 14 -14 21 -14 15z"/>
<path d="M3551 3205 c0 -5 6 -21 14 -35 8 -14 14 -20 14 -15 0 6 -6 21 -14 35
-8 14 -14 21 -14 15z"/>
<path d="M3591 3115 c0 -5 6 -21 14 -35 8 -14 14 -20 14 -15 0 6 -6 21 -14 35
-8 14 -14 21 -14 15z"/>
<path d="M3621 3045 c0 -5 6 -21 14 -35 8 -14 14 -20 14 -15 0 6 -6 21 -14 35
-8 14 -14 21 -14 15z"/>
<path d="M3661 2955 c0 -5 6 -21 14 -35 8 -14 14 -20 14 -15 0 6 -6 21 -14 35
-8 14 -14 21 -14 15z"/>
<path d="M3691 2885 c0 -5 6 -21 14 -35 8 -14 14 -20 14 -15 0 6 -6 21 -14 35
-8 14 -14 21 -14 15z"/>
<path d="M2600 2816 c0 -4 5 -16 11 -27 10 -19 9 -20 -18 -5 -28 14 -32 13
-121 -42 -63 -39 -89 -59 -81 -67 13 -13 383 -253 386 -251 3 2 -167 389 -173
395 -2 2 -4 1 -4 -3z"/>
<path d="M3731 2795 c0 -5 6 -21 14 -35 8 -14 14 -20 14 -15 0 6 -6 21 -14 35
-8 14 -14 21 -14 15z"/>
<path d="M3761 2725 c0 -5 6 -21 14 -35 8 -14 14 -20 14 -15 0 6 -6 21 -14 35
-8 14 -14 21 -14 15z"/>
<path d="M3801 2635 c0 -5 6 -21 14 -35 8 -14 14 -20 14 -15 0 6 -6 21 -14 35
-8 14 -14 21 -14 15z"/>
<path d="M3846 2525 c8 -37 14 -45 14 -19 0 10 -5 26 -10 34 -8 11 -9 7 -4
-15z"/>
<path d="M3850 2461 c0 -10 -9 -31 -21 -47 l-21 -29 26 28 c22 24 36 67 21 67
-3 0 -5 -8 -5 -19z"/>
<path d="M2781 2405 c0 -5 6 -21 14 -35 8 -14 14 -20 14 -15 0 6 -6 21 -14 35
-8 14 -14 21 -14 15z"/>
<path d="M3740 2365 c-14 -8 -20 -14 -15 -14 6 0 21 6 35 14 14 8 21 14 15 14
-5 0 -21 -6 -35 -14z"/>
<path d="M3650 2325 c-14 -8 -20 -14 -15 -14 6 0 21 6 35 14 14 8 21 14 15 14
-5 0 -21 -6 -35 -14z"/>
<path d="M2820 2315 c0 -5 5 -17 10 -25 5 -8 10 -10 10 -5 0 6 -5 17 -10 25
-5 8 -10 11 -10 5z"/>
<path d="M3580 2295 c-14 -8 -20 -14 -15 -14 6 0 21 6 35 14 14 8 21 14 15 14
-5 0 -21 -6 -35 -14z"/>
<path d="M3367 2203 l-147 -66 56 -38 c39 -26 76 -41 120 -48 103 -18 414 3
414 28 0 4 -65 44 -145 90 -80 45 -143 87 -140 92 10 15 -4 10 -158 -58z"/>
<path d="M2851 2245 c0 -5 6 -21 14 -35 8 -14 14 -20 14 -15 0 6 -6 21 -14 35
-8 14 -14 21 -14 15z"/>
<path d="M2890 2155 c0 -5 5 -17 10 -25 5 -8 10 -10 10 -5 0 6 -5 17 -10 25
-5 8 -10 11 -10 5z"/>
<path d="M3170 2115 c-14 -8 -20 -14 -15 -14 6 0 21 6 35 14 14 8 21 14 15 14
-5 0 -21 -6 -35 -14z"/>
<path d="M2942 2078 c16 -16 38 -28 51 -27 19 1 18 2 -7 9 -16 5 -38 17 -50
27 -12 10 -9 6 6 -9z"/>
<path d="M3080 2075 c-14 -8 -20 -14 -15 -14 6 0 21 6 35 14 14 8 21 14 15 14
-5 0 -21 -6 -35 -14z"/>
<path d="M3028 2053 c7 -3 16 -2 19 1 4 3 -2 6 -13 5 -11 0 -14 -3 -6 -6z"/>
<path d="M1038 1917 c-86 -40 -160 -75 -163 -79 -5 -5 17 -61 30 -76 1 -2 28
9 60 23 32 14 63 25 69 25 6 0 21 -23 33 -51 20 -44 25 -50 45 -44 40 12 43
23 20 70 -28 57 -27 59 3 73 36 16 43 15 50 -9 4 -11 18 -45 32 -75 l24 -54
32 14 c18 7 31 20 29 27 -5 24 -97 229 -102 228 -3 0 -76 -33 -162 -72z"/>
<path d="M3887 1912 c-24 -27 -57 -104 -57 -135 0 -40 15 -63 47 -75 38 -13
62 -2 106 47 54 59 74 54 41 -12 -9 -18 -25 -41 -35 -53 -19 -20 -19 -21 7
-33 34 -15 53 1 89 72 44 89 24 160 -45 160 -26 0 -42 -9 -77 -46 -68 -72 -86
-58 -34 25 l29 46 -24 11 c-31 14 -28 14 -47 -7z"/>
<path d="M3763 1651 c-38 -24 -83 -97 -83 -135 0 -45 28 -91 69 -114 48 -27
86 -28 127 -3 59 36 127 149 101 168 -30 24 -36 22 -57 -22 -24 -50 -78 -101
-92 -87 -5 5 13 41 46 89 l56 81 -27 17 c-41 27 -102 30 -140 6z m62 -61 c3
-6 -8 -30 -26 -55 -23 -32 -35 -42 -41 -33 -14 23 -8 48 17 73 26 27 40 31 50
15z"/>
<path d="M1096 1619 c-63 -55 -58 -150 13 -220 78 -78 193 -57 222 42 42 137
-132 269 -235 178z m139 -74 c30 -29 32 -58 5 -85 -27 -27 -75 -26 -94 2 -23
33 -19 64 10 87 34 27 50 26 79 -4z"/>
<path d="M3586 1431 c-16 -16 -25 -34 -22 -39 3 -6 -7 -13 -23 -17 -34 -7 -88
-63 -97 -100 -20 -79 52 -165 137 -165 41 0 103 42 119 81 15 36 28 37 36 3 9
-36 -9 -69 -56 -100 -45 -30 -46 -31 -24 -55 25 -28 85 4 135 74 34 47 39 107
11 148 -19 28 -176 199 -184 199 -2 0 -17 -13 -32 -29z m51 -123 c42 -39 18
-108 -38 -108 -63 0 -91 71 -43 109 34 27 52 26 81 -1z"/>
<path d="M1321 1339 l-85 -90 32 -32 32 -31 53 52 c57 56 73 61 118 35 28 -17
30 -17 50 4 26 25 19 40 -28 59 -19 8 -31 19 -27 25 6 10 -43 70 -55 68 -3 -1
-44 -41 -90 -90z"/>
<path d="M1481 1174 c-35 -58 -62 -106 -60 -108 26 -20 56 -36 65 -36 7 0 29
29 50 64 38 66 63 83 96 65 26 -14 23 -26 -27 -106 l-44 -72 33 -20 c18 -12
36 -21 39 -21 3 0 25 31 48 70 45 73 72 88 99 55 10 -12 4 -29 -33 -92 l-46
-77 35 -24 c20 -13 37 -22 39 -20 22 24 98 166 102 191 4 29 0 37 -27 60 -17
15 -49 30 -70 33 -27 4 -41 13 -46 26 -8 26 -62 58 -97 58 -16 0 -26 4 -22 10
5 8 -50 51 -65 50 -3 -1 -34 -48 -69 -106z"/>
<path d="M3289 1186 c-39 -14 -88 -46 -109 -70 -10 -13 -9 -20 4 -42 l17 -25
40 35 c27 25 49 36 70 36 39 0 34 -21 -8 -32 -33 -8 -93 -69 -93 -93 0 -28 20
-64 45 -81 35 -23 86 -11 131 31 20 19 39 34 43 33 8 -3 71 31 71 38 0 16 -86
147 -108 164 -28 23 -52 24 -103 6z m98 -153 c6 -16 -44 -66 -59 -61 -6 2 -16
12 -22 22 -9 14 -6 21 13 37 26 21 62 22 68 2z"/>
<path d="M2594 1073 c-8 -6 -6 -58 7 -183 9 -96 18 -176 18 -177 1 -2 21 -3
46 -3 l45 0 -6 58 c-3 31 -11 113 -17 182 l-12 125 -35 3 c-19 1 -40 -1 -46
-5z"/>
<path d="M3034 1059 c-16 -5 -40 -20 -53 -33 -19 -20 -27 -23 -41 -14 -25 16
-96 -6 -111 -33 -7 -15 -14 -17 -23 -10 -8 7 -24 7 -48 1 l-36 -10 35 -118
c19 -64 36 -118 38 -120 2 -2 21 2 43 7 l40 11 -23 78 c-26 86 -19 117 26 117
21 0 26 -9 48 -83 l25 -84 35 7 c20 4 39 9 42 11 4 2 -4 41 -17 86 l-25 83 21
17 c12 9 28 14 36 11 7 -3 26 -43 40 -90 20 -63 30 -83 41 -79 8 4 26 9 39 12
30 8 30 8 -1 109 -36 118 -63 144 -131 124z"/>
<path d="M1950 1024 c-6 -14 -10 -27 -10 -29 0 -2 21 -7 46 -11 45 -6 106 -46
92 -59 -4 -4 -31 3 -61 15 -77 32 -128 15 -143 -47 -16 -61 41 -113 123 -113
24 0 43 -4 43 -8 0 -8 71 -35 76 -29 1 1 14 42 28 90 34 120 18 162 -73 191
-92 28 -111 28 -121 0z m87 -149 c37 -26 7 -61 -42 -49 -26 6 -37 26 -29 49 8
19 44 19 71 0z"/>
<path d="M2250 1031 c0 -33 -11 -51 -31 -51 -14 0 -19 -7 -19 -30 0 -20 5 -30
15 -30 14 0 15 -11 9 -75 -8 -89 6 -118 63 -134 53 -15 80 -5 85 30 4 25 1 29
-18 29 -35 0 -46 22 -38 79 6 47 9 51 34 51 27 0 40 15 40 46 0 9 -11 14 -30
14 -29 0 -30 1 -24 39 5 34 4 39 -17 44 -45 12 -69 8 -69 -12z"/>
</g>
</svg>
